<mxfile host="app.diagrams.net" modified="2022-04-29T09:08:09.962Z" agent="5.0 (Macintosh; Intel Mac OS X 10_15_7) AppleWebKit/537.36 (KHTML, like Gecko) Chrome/100.0.4896.127 Safari/537.36" etag="lt7jJNqFXOj5ZCD8f40B" version="17.5.0" type="github">
  <diagram id="G_9-2qdicj4UJVRfquI0" name="Page-1">
    <mxGraphModel dx="946" dy="504" grid="1" gridSize="10" guides="1" tooltips="1" connect="1" arrows="1" fold="1" page="1" pageScale="1" pageWidth="827" pageHeight="1169" math="0" shadow="0">
      <root>
        <mxCell id="0" />
        <mxCell id="1" parent="0" />
        <mxCell id="zSZ344aRCzR-wqKju0uk-2" value="数据库中存储的日期格式" style="text;html=1;align=center;verticalAlign=middle;resizable=0;points=[];autosize=1;strokeColor=none;fillColor=none;" vertex="1" parent="1">
          <mxGeometry x="140" y="30" width="150" height="20" as="geometry" />
        </mxCell>
        <mxCell id="zSZ344aRCzR-wqKju0uk-4" value="时间过滤器传来的时间格式" style="text;html=1;align=center;verticalAlign=middle;resizable=0;points=[];autosize=1;strokeColor=none;fillColor=none;" vertex="1" parent="1">
          <mxGeometry x="385" y="30" width="160" height="20" as="geometry" />
        </mxCell>
        <mxCell id="zSZ344aRCzR-wqKju0uk-5" value="yyyy-MM-dd" style="ellipse;shape=cloud;whiteSpace=wrap;html=1;" vertex="1" parent="1">
          <mxGeometry x="414" y="90" width="120" height="80" as="geometry" />
        </mxCell>
        <mxCell id="zSZ344aRCzR-wqKju0uk-6" value="&lt;span&gt;yyyy/MM/dd&lt;/span&gt;&lt;br&gt;&lt;span&gt;yyyyMMdd&lt;/span&gt;&lt;br&gt;&lt;span&gt;yyyy-MM-dd&lt;/span&gt;&lt;br&gt;&lt;span&gt;yyyy MM dd&lt;/span&gt;" style="ellipse;shape=cloud;whiteSpace=wrap;html=1;" vertex="1" parent="1">
          <mxGeometry x="130" y="70" width="190" height="120" as="geometry" />
        </mxCell>
        <mxCell id="zSZ344aRCzR-wqKju0uk-9" value="" style="shape=flexArrow;endArrow=classic;html=1;rounded=0;" edge="1" parent="1">
          <mxGeometry width="50" height="50" relative="1" as="geometry">
            <mxPoint x="414" y="129.5" as="sourcePoint" />
            <mxPoint x="324" y="129.5" as="targetPoint" />
            <Array as="points">
              <mxPoint x="404" y="129.5" />
              <mxPoint x="394" y="129.5" />
            </Array>
          </mxGeometry>
        </mxCell>
      </root>
    </mxGraphModel>
  </diagram>
</mxfile>
